<?xml version="1.0" standalone="no"?><!DOCTYPE svg PUBLIC "-//W3C//DTD SVG 1.1//EN" "http://www.w3.org/Graphics/SVG/1.1/DTD/svg11.dtd"><svg t="1557048590695" class="icon" style="" viewBox="0 0 1024 1024" version="1.1" xmlns="http://www.w3.org/2000/svg" p-id="5520" xmlns:xlink="http://www.w3.org/1999/xlink" width="200" height="200"><defs><style type="text/css"></style></defs><path d="M457.386667 983.04c-58.026667 0-112.64-10.24-163.84-34.133333-51.2-20.48-95.573333-51.2-133.12-92.16-37.546667-37.546667-68.266667-85.333333-92.16-133.12-20.48-51.2-34.133333-109.226667-34.133334-163.84 0-58.026667 10.24-112.64 34.133334-163.84 20.48-51.2 51.2-95.573333 92.16-133.12 37.546667-37.546667 85.333333-68.266667 133.12-92.16 51.2-20.48 109.226667-34.133333 163.84-34.133334h27.306666v395.946667h395.946667v27.306667c0 58.026667-10.24 112.64-34.133333 163.84-20.48 51.2-51.2 95.573333-92.16 133.12-37.546667 37.546667-85.333333 68.266667-133.12 92.16-51.2 20.48-105.813333 34.133333-163.84 34.133333z m-27.306667-791.893333c-88.746667 6.826667-170.666667 44.373333-232.106667 105.813333-68.266667 68.266667-109.226667 160.426667-109.226666 259.413333 0 98.986667 37.546667 191.146667 109.226666 259.413334 68.266667 68.266667 160.426667 109.226667 259.413334 109.226666 98.986667 0 191.146667-37.546667 259.413333-109.226666 61.44-61.44 98.986667-143.36 105.813333-232.106667H430.08V191.146667z m0 0" fill="#1296db" p-id="5521"></path><path d="M938.666667 508.586667H508.586667V78.506667h27.306666c54.613333 0 105.813333 10.24 157.013334 30.72 47.786667 20.48 92.16 47.786667 129.706666 85.333333C860.16 232.106667 887.466667 273.066667 907.946667 324.266667c20.48 51.2 30.72 102.4 30.72 157.013333v27.306667z m-375.466667-54.613334h320.853333c-6.826667-81.92-40.96-160.426667-102.4-218.453333-58.026667-58.026667-136.533333-95.573333-218.453333-102.4v320.853333z m0 0" fill="#1296db" p-id="5522"></path></svg>