<?xml version="1.0" standalone="no"?><!DOCTYPE svg PUBLIC "-//W3C//DTD SVG 1.1//EN" "http://www.w3.org/Graphics/SVG/1.1/DTD/svg11.dtd"><svg t="1557047981368" class="icon" style="" viewBox="0 0 1024 1024" version="1.1" xmlns="http://www.w3.org/2000/svg" p-id="5092" xmlns:xlink="http://www.w3.org/1999/xlink" width="200" height="200"><defs><style type="text/css"></style></defs><path d="M506.857886 111.335714c131.941008 0 249.055332 63.47466 322.476529 161.55242l41.594327-26.367531C788.705066 134.75203 656.254451 62.217017 506.857886 62.217017c-94.847182 0-182.860724 29.238928-255.53286 79.187527l32.009018 37.646411c63.943334-42.769083 140.819213-67.715241 223.523842-67.715241zM104.290251 513.904373c0-99.779517 36.305881-191.075827 96.42205-261.411755l-32.180933-37.85005C97.992825 294.328445 55.171554 399.115 55.171554 513.904373c0 225.489614 165.233252 412.380118 381.224537 446.215738l-0.888229-49.951669c-188.29755-33.679054-331.21761-198.280926-331.217611-396.264069zM925.104619 343.030657l-42.241056 26.776854c17.156752 44.740994 26.562982 93.319385 26.562982 144.096862 0 209.083969-159.399383 380.931872-363.3044 400.669402l0.874927 49.254797C777.654382 943.517991 958.545242 749.835803 958.545242 513.90335c-0.001023-60.468187-11.883655-118.16219-33.440623-170.872693z" p-id="5093" fill="#1296db"></path><path d="M564.075029 562.139957c0-2.431376-0.181125-4.819772-0.509606-7.16212l34.29713-28.611641 72.875774 58.010205a50.01716 50.01716 0 0 0-3.335978 17.991769c0 27.707039 22.461571 50.16861 50.16861 50.16861s50.16861-22.461571 50.16861-50.16861c0-27.708062-22.461571-50.16861-50.16861-50.168609-13.563924 0-25.862018 5.392824-34.891672 14.137998l-67.921948-54.066383 66.066694-55.114248c9.339716 10.021238 22.648836 16.297175 37.429471 16.297174 28.257577 0 51.16531-22.907733 51.16531-51.16531s-22.907733-51.16531-51.16531-51.16531-51.16531 22.907733-51.16531 51.16531c0 5.625114 0.920976 11.033287 2.598175 16.095583l-72.143087 60.183708-59.930951-47.706535c6.550183-8.477069 10.458189-19.10001 10.458189-30.641881 0-27.708062-22.461571-50.16861-50.168609-50.16861-27.708062 0-50.16861 22.461571-50.16861 50.16861a49.993624 49.993624 0 0 0 3.830235 19.241227l-74.070996 61.32981-55.786561-24.653493a51.138704 51.138704 0 0 0 2.234901-14.985296c0-28.257577-22.907733-51.16531-51.16531-51.16531s-51.16531 22.907733-51.16531 51.16531 22.907733 51.16531 51.16531 51.16531c15.267728 0 28.964682-6.694469 38.33919-17.300015l47.824215 21.134343-56.281841 46.600341a49.937342 49.937342 0 0 0-29.881564-9.870811c-27.707039 0-50.16861 22.461571-50.16861 50.168609s22.461571 50.16861 50.16861 50.16861 50.16861-22.461571 50.16861-50.16861a49.940412 49.940412 0 0 0-6.128581-24.042579l64.156182-53.119825 80.789001 35.70213c-0.002047 0.184195-0.014326 0.36532-0.014326 0.549516 0 28.257577 22.907733 51.16531 51.16531 51.16531 28.255531 0.001023 51.163263-22.906709 51.163263-51.164287z m154.178475-171.915441c17.708314 0 32.063253 14.354939 32.063253 32.063253s-14.354939 32.063253-32.063253 32.063253-32.063253-14.354939-32.063253-32.063253 14.354939-32.063253 32.063253-32.063253zM272.774547 493.215168c-17.708314 0-32.063253-14.354939-32.063253-32.063253s14.354939-32.063253 32.063253-32.063253 32.063253 14.354939 32.063253 32.063253-14.354939 32.063253-32.063253 32.063253z m193.904245 46.988174l-67.155493-29.676903 64.446801-53.360302c8.93244 8.207939 20.844747 13.222139 33.931811 13.22214a49.933249 49.933249 0 0 0 22.768562-5.468549l59.977 47.743374-25.208125 21.029966c-9.181103-13.699-24.799826-22.718421-42.529629-22.718421-20.405749 0-38.016849 11.949146-46.230927 29.228695z m46.230927 53.999868c-17.708314 0-32.063253-14.354939-32.063253-32.063253s14.354939-32.064276 32.063253-32.064276 32.063253 14.354939 32.063253 32.064276c0.001023 17.708314-14.354939 32.063253-32.063253 32.063253z" p-id="5094" fill="#1296db"></path></svg>