<?xml version="1.0" standalone="no"?><!DOCTYPE svg PUBLIC "-//W3C//DTD SVG 1.1//EN" "http://www.w3.org/Graphics/SVG/1.1/DTD/svg11.dtd"><svg t="1557048665116" class="icon" style="" viewBox="0 0 1024 1024" version="1.1" xmlns="http://www.w3.org/2000/svg" p-id="5663" xmlns:xlink="http://www.w3.org/1999/xlink" width="200" height="200"><defs><style type="text/css"></style></defs><path d="M930.63971 456.231397l38.742585 19.755278c54.981992 27.93898 53.000064 72.627347-3.515872 99.414369l-363.133737 172.103715c-56.898922 27.044012-148.002594 26.02105-202.6006-1.724937L49.529891 567.601329c-54.981992-28.001977-53.000064-72.754343 3.451874-99.478366l29.088937-13.809496 319.596328 164.304999c54.534008 27.810984 145.700679 28.768949 202.663598 1.789935l326.245084-164.177004z m5.945783 258.73255l32.796802 16.750388c54.981992 27.93898 53.000064 72.627347-3.515872 99.414369l-360.128847 173.255672c-56.898922 26.915017-148.066592 25.956052-202.664598-1.789934L49.529891 823.328989c-54.981992-28.001977-53.000064-72.690345 3.515872-99.478367l25.892054-12.274551 337.177685 163.218039c54.598006 27.746987 145.764676 28.768949 202.664598 1.725936l317.741395-161.556099zM414.389565 20.023329C472.375447-7.466667 565.268054-6.443705 620.889023 21.813263l357.187954 181.567369c56.067952 28.513959 53.959029 74.097294-3.579869 101.396296L604.522621 480.142524c-57.985882 27.489996-150.879489 26.467033-206.500458-1.789935l-357.186954-181.567369c-56.004955-28.513959-53.959029-74.097294 3.579869-101.396296L414.389565 20.023329z" p-id="5664" fill="#1296db"></path></svg>