<?xml version="1.0" standalone="no"?><!DOCTYPE svg PUBLIC "-//W3C//DTD SVG 1.1//EN" "http://www.w3.org/Graphics/SVG/1.1/DTD/svg11.dtd"><svg t="1557047142411" class="icon" style="" viewBox="0 0 1024 1024" version="1.1" xmlns="http://www.w3.org/2000/svg" p-id="4661" xmlns:xlink="http://www.w3.org/1999/xlink" width="200" height="200"><defs><style type="text/css"></style></defs><path d="M512 0.45568C229.4784 0.45568 0.45568 229.48352 0.45568 512c0 282.5216 229.0176 511.54432 511.54432 511.54432 282.5216 0 511.5392-229.02272 511.5392-511.54432C1023.5392 229.48352 794.5216 0.45568 512 0.45568z m0.02048 957.70624c-246.43584 0-446.208-199.77728-446.208-446.208s199.77216-446.21312 446.208-446.21312c246.43584 0 446.208 199.77216 446.208 446.21312 0 246.43072-199.77216 446.208-446.208 446.208z" p-id="4662" fill="#1296db"></path><path d="M521.6 806.10816m-47.86176 0a47.86176 47.86176 0 1 0 95.72352 0 47.86176 47.86176 0 1 0-95.72352 0Z" p-id="4663" fill="#1296db"></path><path d="M521.6 672.3584a31.18592 31.18592 0 0 0 31.17568-31.17056v-481.792a31.1808 31.1808 0 0 0-62.35648 0v481.79712a31.1808 31.1808 0 0 0 31.1808 31.16544z" p-id="4664" fill="#1296db"></path></svg>