<?xml version="1.0" standalone="no"?><!DOCTYPE svg PUBLIC "-//W3C//DTD SVG 1.1//EN" "http://www.w3.org/Graphics/SVG/1.1/DTD/svg11.dtd"><svg t="1557047832705" class="icon" style="" viewBox="0 0 1024 1024" version="1.1" xmlns="http://www.w3.org/2000/svg" p-id="4949" xmlns:xlink="http://www.w3.org/1999/xlink" width="200" height="200"><defs><style type="text/css"></style></defs><path d="M918.58944 512c0 224.55296-182.03136 406.58944-406.58432 406.58944-224.55808 0-406.58944-182.03648-406.58944-406.58944 0-224.54784 182.03136-406.58944 406.58944-406.58944 224.54784-0.01024 406.58432 182.03648 406.58432 406.58944z m-406.58432-356.20864c-196.72576 0-356.20864 159.47776-356.20864 356.20864 0 196.72064 159.48288 356.1984 356.20864 356.1984 196.72064 0 356.20352-159.47776 356.20352-356.1984 0-196.73088-159.48288-356.20864-356.20352-356.20864z" fill="#1296db" p-id="4950"></path><path d="M520.47872 85.51936L236.20096 718.97088l287.68256-55.3984 0.07168 274.90816L779.4176 383.15008h-255.4624" fill="#1296db" p-id="4951"></path></svg>