<?xml version="1.0" standalone="no"?><!DOCTYPE svg PUBLIC "-//W3C//DTD SVG 1.1//EN" "http://www.w3.org/Graphics/SVG/1.1/DTD/svg11.dtd"><svg t="1557047454174" class="icon" style="" viewBox="0 0 1024 1024" version="1.1" xmlns="http://www.w3.org/2000/svg" p-id="4805" xmlns:xlink="http://www.w3.org/1999/xlink" width="200" height="200"><defs><style type="text/css"></style></defs><path d="M514.112 139.264a324.928 324.928 0 1 0 0 649.984 324.992 324.992 0 0 0 0-649.984z m0 551.488a226.56 226.56 0 1 1 0-453.12 226.56 226.56 0 0 1 0 453.12z" p-id="4806" fill="#1296db"></path><path d="M514.112 273.792a190.4 190.4 0 1 0 0 380.992 190.528 190.528 0 0 0 0-380.992z m0 342.336a151.936 151.936 0 0 1 0-303.68 151.872 151.872 0 1 1 0 303.68z" p-id="4807" fill="#1296db"></path><path d="M432.768 464.256l-0.128-1.408c0-40.32 30.912-73.408 70.4-76.928v-37.248a118.464 118.464 0 0 0-111.616 115.584h41.344zM857.28 837.76c-0.896-13.376-81.6-89.28-122.304-89.28-40.768 0-129.792 68.096-220.864 68.096-86.272 0-188.8-68.096-232.768-68.096s-115.008 74.496-115.008 89.28v46.976h136.192l-0.128-8.256 421.312-0.512 0.128 8.768h133.376c0.064 0 0.96-33.6 0.064-46.976z" p-id="4808" fill="#1296db"></path></svg>