<?xml version="1.0" standalone="no"?><!DOCTYPE svg PUBLIC "-//W3C//DTD SVG 1.1//EN" "http://www.w3.org/Graphics/SVG/1.1/DTD/svg11.dtd"><svg t="1557048487661" class="icon" style="" viewBox="0 0 1024 1024" version="1.1" xmlns="http://www.w3.org/2000/svg" p-id="5378" xmlns:xlink="http://www.w3.org/1999/xlink" width="200" height="200"><defs><style type="text/css"></style></defs><path d="M509.483178 10.444886c-277.145088 0-502.633678 225.63083-502.633678 502.954997 0 277.31291 225.488591 502.94374 502.633678 502.94374 277.197276 0 502.736009-225.63083 502.736009-502.94374C1012.219187 236.074693 786.680455 10.444886 509.483178 10.444886zM509.483178 946.275801c-238.537791 0-432.629301-194.181561-432.629301-432.875918 0-238.680031 194.09151-432.888198 432.629301-432.888198 238.588957 0 432.68149 194.208167 432.68149 432.888198C942.164668 752.09424 748.072135 946.275801 509.483178 946.275801zM694.84077 293.14448c-2.506077-0.903579-5.91778-1.641383-10.284227-2.300392-4.341888-0.632403-9.639544-0.930185-15.969717-0.930185-6.563486 0-12.042267 0.297782-16.384156 0.930185-4.339842 0.659009-7.80271 1.39579-10.438747 2.300392-2.661619 0.865717-4.497431 2.080382-5.556553 3.578502-1.058099 1.538029-1.575892 3.307326-1.575892 5.336542l0 300.388465c0 22.042016-2.841721 41.267892-8.476045 57.728796-5.658883 16.447601-13.798261 30.246885-24.470321 41.383526-10.673084 11.149944-23.696702 19.523659-39.072901 25.079188-15.401782 5.555529-32.94739 8.346085-52.715619 8.346085-19.200294 0-36.513612-2.856048-51.889811-8.540514-15.400758-5.697769-28.554336-14.173814-39.48427-25.465998-10.930957-11.241019-19.277042-25.362644-25.040303-42.340317-5.814426-16.939811-8.708336-36.811394-8.708336-59.615773L384.773875 302.059524c0-2.028193-0.543376-3.797489-1.576915-5.336542-1.059122-1.49812-2.842745-2.712785-5.323239-3.578502-2.532683-0.903579-5.994528-1.641383-10.490935-2.300392-4.444219-0.632403-9.819646-0.930185-16.150842-0.930185-6.847965 0-12.377912 0.297782-16.58984 0.930185-4.211928 0.659009-7.622608 1.39579-10.258645 2.300392-2.636037 0.865717-4.470825 2.080382-5.529947 3.578502-1.060145 1.538029-1.576915 3.307326-1.576915 5.336542l0 304.962643c0 30.104645 4.470825 56.707536 13.437034 79.731926 8.915044 23.049972 21.680788 42.236963 38.270629 57.535391 16.58984 15.32401 36.434817 26.900673 59.589167 34.769898 23.153326 7.829316 48.839335 11.771091 77.006861 11.771091 30.775934 0 58.270125-4.187369 82.482573-12.546757 24.187889-8.346085 44.706201-20.633946 61.58052-36.835953 16.848737-16.20303 29.794583-36.022425 38.864146-59.420321 9.069563-23.437805 13.618159-50.068326 13.618159-79.966263L702.125687 302.059524c0-2.028193-0.594541-3.797489-1.757017-5.336542C699.182658 295.225885 697.346847 294.010197 694.84077 293.14448z" p-id="5379" fill="#1296db"></path></svg>